<svg width="48" height="32" viewBox="0 0 48 32" xmlns="http://www.w3.org/2000/svg">
  <rect width="48" height="32" rx="4" fill="white"/>
  <g transform="translate(11, 6)">
    <path d="M19.947 3.129c0.328-2.095-0.002-3.524-1.137-4.812C17.656-2.89 15.312-3.457 12.483-3.457H4.228c-0.591 0-1.092 0.431-1.184 1.014L-1.4 16.437c-0.068 0.434 0.265 0.83 0.704 0.83h5.142l-0.356 2.26c-0.060 0.379 0.232 0.725 0.614 0.725h4.301c0.51 0 0.944-0.371 1.024-0.875l0.042-0.219 0.813-5.15 0.052-0.285c0.08-0.504 0.514-0.875 1.023-0.875h0.643c4.172 0 7.443-1.695 8.396-6.599 0.4-2.048 0.193-3.76-0.862-4.96-0.322-0.366-0.722-0.67-1.189-0.915" fill="#27346A"/>
    <path d="M19.947 3.129c0.328-2.095-0.002-3.524-1.137-4.812C17.656-2.89 15.312-3.457 12.483-3.457H4.228c-0.591 0-1.092 0.431-1.184 1.014L-1.4 16.437c-0.068 0.434 0.265 0.83 0.704 0.83h5.142l1.294-8.207-0.04 0.258c0.091-0.583 0.59-1.014 1.181-1.014h2.463c4.839 0 8.635-1.967 9.743-7.662 0.033-0.17 0.061-0.335 0.085-0.497" fill="#27346A"/>
    <path d="M8.322 3.343c0.056-0.36 0.286-0.656 0.592-0.797 0.14-0.065 0.295-0.1 0.458-0.1h6.666c0.79 0 1.526 0.052 2.199 0.159 0.193 0.03 0.381 0.067 0.564 0.108 0.183 0.041 0.361 0.088 0.535 0.14 0.087 0.025 0.173 0.052 0.258 0.08 0.337 0.112 0.645 0.244 0.924 0.397 0.328-2.095-0.002-3.524-1.137-4.812C18.227-2.89 15.883-3.457 13.054-3.457H4.8c-0.592 0-1.092 0.431-1.184 1.014L-0.828 16.437c-0.068 0.434 0.265 0.83 0.704 0.83h5.142l1.294-8.207 2.01-5.717z" fill="#2790C3"/>
    <path d="M19.518 4.330c-0.28-0.153-0.587-0.285-0.924-0.397-0.085-0.028-0.17-0.055-0.257-0.08a7.237 7.237 0 0 0-0.536-0.14 10.05 10.05 0 0 0-0.564-0.108 12.91 12.91 0 0 0-2.2-0.159H8.372c-0.163 0-0.318 0.036-0.458 0.1a1.045 1.045 0 0 0-0.592 0.797L5.313 10.06l-0.04 0.258c0.091-0.583 0.59-1.014 1.181-1.014h2.463c4.839 0 8.636-1.967 9.743-7.662 0.033-0.17 0.062-0.335 0.085-0.497a5.613 5.613 0 0 0-1.07-0.376z" fill="#1F264F"/>
  </g>
</svg> 