<svg width="48" height="32" viewBox="0 0 48 32" xmlns="http://www.w3.org/2000/svg">
  <rect width="48" height="32" rx="4" fill="white"/>
  <path d="M21.4 21.9h-3.2l2-12.4h3.2l-2 12.4z" fill="#00579F"/>
  <path d="M34.4 9.8c-0.6-0.2-1.6-0.5-2.9-0.5-3.2 0-5.4 1.7-5.4 4-0.1 1.8 1.6 2.7 2.8 3.3 1.2 0.6 1.6 1 1.6 1.5 0 0.8-1 1.2-1.9 1.2-1.3 0-2-0.2-3-0.7l-0.4-0.2-0.5 2.8c0.7 0.3 2.1 0.6 3.5 0.6 3.3 0 5.5-1.6 5.5-4.2 0-1.4-0.9-2.5-2.7-3.3-1.1-0.6-1.8-0.9-1.8-1.5 0-0.5 0.6-1 1.8-1 1 0 1.8 0.2 2.3 0.5l0.3 0.1 0.5-2.7-0.7-0.1z" fill="#00579F"/>
  <path d="M39.7 17.1l-1.5-7.3H35l-0.1 0.5c-1.1 3.2-3 6-4.8 7.7l3.3 0.2 0.6-1.7h3.5l0.3 1.5 2.9 0.1v-1zm-3.9-3.6h-2.2l1.8-4.4 0.4 4.4z" fill="#00579F"/>
  <path d="M17.1 9.8l-3.1 7.8-0.3-1.7c-0.6-2-2.5-4.2-4.6-5.3l3 10.2h3.5l5.3-11h-3.8z" fill="#00579F"/>
  <path d="M10.2 9.8H5l-0.1 0.3c4 1 6.7 3.5 7.8 6.5l-1.1-5.4c-0.2-0.8-0.8-1.3-1.4-1.4z" fill="#F7A600"/>
</svg> 